<svg width="60" height="61" viewBox="0 0 60 61" fill="none" xmlns="http://www.w3.org/2000/svg">
<rect y="1" width="60" height="60" rx="5" fill="url(#paint0_linear_103_13)"/>
<mask id="path-2-outside-1_103_13" maskUnits="userSpaceOnUse" x="7" y="15" width="19" height="34" fill="black">
<rect fill="white" x="7" y="15" width="19" height="34"/>
<path d="M9.088 48C8.688 48 8.488 47.8 8.488 47.4V41.568C8.488 41.36 8.496 41.2 8.512 41.088C8.544 40.96 8.64 40.848 8.8 40.752L14.392 37.848V35.376L8.872 32.256C8.616 32.096 8.488 31.856 8.488 31.536V21.552C8.488 21.296 8.504 21.112 8.536 21C8.568 20.872 8.68 20.736 8.872 20.592L15.208 16.32C15.352 16.224 15.488 16.152 15.616 16.104C15.76 16.04 15.944 16.008 16.168 16.008H23.824C24.224 16.008 24.424 16.208 24.424 16.608V22.464C24.424 22.816 24.304 23.056 24.064 23.184L17.776 25.872V28.44L24.064 32.04C24.304 32.152 24.424 32.408 24.424 32.808V43.248C24.424 43.376 24.4 43.512 24.352 43.656C24.32 43.784 24.24 43.888 24.112 43.968L16.576 47.712C16.48 47.776 16.36 47.84 16.216 47.904C16.088 47.968 15.96 48 15.832 48H9.088Z"/>
</mask>
<path d="M9.088 48C8.688 48 8.488 47.8 8.488 47.4V41.568C8.488 41.36 8.496 41.2 8.512 41.088C8.544 40.96 8.64 40.848 8.8 40.752L14.392 37.848V35.376L8.872 32.256C8.616 32.096 8.488 31.856 8.488 31.536V21.552C8.488 21.296 8.504 21.112 8.536 21C8.568 20.872 8.68 20.736 8.872 20.592L15.208 16.32C15.352 16.224 15.488 16.152 15.616 16.104C15.76 16.04 15.944 16.008 16.168 16.008H23.824C24.224 16.008 24.424 16.208 24.424 16.608V22.464C24.424 22.816 24.304 23.056 24.064 23.184L17.776 25.872V28.44L24.064 32.04C24.304 32.152 24.424 32.408 24.424 32.808V43.248C24.424 43.376 24.4 43.512 24.352 43.656C24.32 43.784 24.24 43.888 24.112 43.968L16.576 47.712C16.48 47.776 16.36 47.84 16.216 47.904C16.088 47.968 15.96 48 15.832 48H9.088Z" fill="#F5F5F5"/>
<path d="M8.512 41.088L7.54186 40.8455L7.52935 40.8955L7.52205 40.9466L8.512 41.088ZM8.8 40.752L8.33913 39.8645L8.31185 39.8787L8.2855 39.8945L8.8 40.752ZM14.392 37.848L14.8529 38.7355L15.392 38.4555V37.848H14.392ZM14.392 35.376H15.392V34.7925L14.8841 34.5054L14.392 35.376ZM8.872 32.256L8.342 33.104L8.36072 33.1157L8.37994 33.1266L8.872 32.256ZM8.536 21L9.49752 21.2747L9.5021 21.2587L9.50614 21.2425L8.536 21ZM8.872 20.592L8.31296 19.7629L8.29211 19.7769L8.272 19.792L8.872 20.592ZM15.208 16.32L14.6533 15.4879L14.649 15.4909L15.208 16.32ZM15.616 16.104L15.9671 17.0403L15.995 17.0299L16.0221 17.0178L15.616 16.104ZM24.064 23.184L24.4571 24.1035L24.4966 24.0866L24.5346 24.0664L24.064 23.184ZM17.776 25.872L17.3829 24.9525L16.776 25.2119V25.872H17.776ZM17.776 28.44H16.776V29.0198L17.2791 29.3078L17.776 28.44ZM24.064 32.04L23.5671 32.9078L23.6033 32.9286L23.6411 32.9462L24.064 32.04ZM24.352 43.656L23.4033 43.3398L23.3912 43.3762L23.3819 43.4135L24.352 43.656ZM24.112 43.968L24.5569 44.8636L24.6006 44.8419L24.642 44.816L24.112 43.968ZM16.576 47.712L16.1311 46.8164L16.0742 46.8447L16.0213 46.8799L16.576 47.712ZM16.216 47.904L15.8099 46.9902L15.7891 46.9994L15.7688 47.0096L16.216 47.904ZM9.088 48V47C9.04214 47 9.19143 46.9892 9.34511 47.1429C9.49879 47.2966 9.488 47.4459 9.488 47.4H8.488H7.488C7.488 47.7541 7.57721 48.2034 7.93089 48.5571C8.28457 48.9108 8.73386 49 9.088 49V48ZM8.488 47.4H9.488V41.568H8.488H7.488V47.4H8.488ZM8.488 41.568H9.488C9.488 41.3751 9.49602 41.2709 9.50195 41.2294L8.512 41.088L7.52205 40.9466C7.49598 41.1291 7.488 41.3449 7.488 41.568H8.488ZM8.512 41.088L9.48214 41.3305C9.42713 41.5506 9.28667 41.6262 9.3145 41.6095L8.8 40.752L8.2855 39.8945C7.99333 40.0698 7.66087 40.3694 7.54186 40.8455L8.512 41.088ZM8.8 40.752L9.26087 41.6395L14.8529 38.7355L14.392 37.848L13.9311 36.9605L8.33913 39.8645L8.8 40.752ZM14.392 37.848H15.392V35.376H14.392H13.392V37.848H14.392ZM14.392 35.376L14.8841 34.5054L9.36406 31.3854L8.872 32.256L8.37994 33.1266L13.8999 36.2466L14.392 35.376ZM8.872 32.256L9.402 31.408C9.40181 31.4079 9.41143 31.4139 9.42539 31.4285C9.43974 31.4434 9.45431 31.4628 9.46635 31.4854C9.49217 31.5338 9.488 31.5608 9.488 31.536H8.488H7.488C7.488 32.1758 7.77306 32.7484 8.342 33.104L8.872 32.256ZM8.488 31.536H9.488V21.552H8.488H7.488V31.536H8.488ZM8.488 21.552H9.488C9.488 21.4428 9.49149 21.3632 9.49624 21.3086C9.50151 21.248 9.50618 21.2444 9.49752 21.2747L8.536 21L7.57448 20.7253C7.5012 20.9817 7.488 21.2868 7.488 21.552H8.488ZM8.536 21L9.50614 21.2425C9.47614 21.3626 9.42423 21.4276 9.41593 21.4377C9.40689 21.4487 9.41841 21.4322 9.472 21.392L8.872 20.592L8.272 19.792C8.02923 19.9741 7.68367 20.2862 7.56586 20.7575L8.536 21ZM8.872 20.592L9.43104 21.4211L15.767 17.1491L15.208 16.32L14.649 15.4909L8.31296 19.7629L8.872 20.592ZM15.208 16.32L15.7627 17.152C15.859 17.0878 15.9267 17.0555 15.9671 17.0403L15.616 16.104L15.2649 15.1677C15.0493 15.2485 14.845 15.3602 14.6533 15.488L15.208 16.32ZM15.616 16.104L16.0221 17.0178C16.0068 17.0246 16.0078 17.0217 16.0333 17.0172C16.0589 17.0128 16.1025 17.008 16.168 17.008V16.008V15.008C15.8588 15.008 15.5237 15.0507 15.2099 15.1902L15.616 16.104ZM16.168 16.008V17.008H23.824V16.008V15.008H16.168V16.008ZM23.824 16.008V17.008C23.8699 17.008 23.7206 17.0188 23.5669 16.8651C23.4132 16.7114 23.424 16.5621 23.424 16.608H24.424H25.424C25.424 16.2539 25.3348 15.8046 24.9811 15.4509C24.6274 15.0972 24.1781 15.008 23.824 15.008V16.008ZM24.424 16.608H23.424V22.464H24.424H25.424V16.608H24.424ZM24.424 22.464H23.424C23.424 22.5313 23.412 22.516 23.4396 22.4608C23.454 22.4319 23.476 22.399 23.5067 22.3677C23.5372 22.3365 23.5682 22.3151 23.5934 22.3016L24.064 23.184L24.5346 24.0664C25.1989 23.712 25.424 23.0584 25.424 22.464H24.424ZM24.064 23.184L23.6709 22.2645L17.3829 24.9525L17.776 25.872L18.1691 26.7915L24.4571 24.1035L24.064 23.184ZM17.776 25.872H16.776V28.44H17.776H18.776V25.872H17.776ZM17.776 28.44L17.2791 29.3078L23.5671 32.9078L24.064 32.04L24.5609 31.1722L18.2729 27.5722L17.776 28.44ZM24.064 32.04L23.6411 32.9462C23.5954 32.9248 23.5482 32.8927 23.5067 32.8503C23.4658 32.8085 23.4415 32.7681 23.4285 32.7404C23.406 32.6924 23.424 32.698 23.424 32.808H24.424H25.424C25.424 32.243 25.2443 31.4873 24.4869 31.1338L24.064 32.04ZM24.424 32.808H23.424V43.248H24.424H25.424V32.808H24.424ZM24.424 43.248H23.424C23.424 43.2507 23.4235 43.2793 23.4033 43.3398L24.352 43.656L25.3007 43.9722C25.3765 43.7447 25.424 43.5013 25.424 43.248H24.424ZM24.352 43.656L23.3819 43.4135C23.399 43.3449 23.4311 43.2778 23.4754 43.2203C23.5181 43.1648 23.5599 43.1338 23.582 43.12L24.112 43.968L24.642 44.816C24.9554 44.6201 25.2182 44.3143 25.3221 43.8985L24.352 43.656ZM24.112 43.968L23.6671 43.0724L16.1311 46.8164L16.576 47.712L17.0209 48.6076L24.5569 44.8636L24.112 43.968ZM16.576 47.712L16.0213 46.8799C15.9859 46.9035 15.9194 46.9415 15.8099 46.9902L16.216 47.904L16.6221 48.8178C16.8006 48.7385 16.9741 48.6485 17.1307 48.5441L16.576 47.712ZM16.216 47.904L15.7688 47.0096C15.7646 47.0117 15.769 47.009 15.7815 47.0059C15.7943 47.0026 15.8118 47 15.832 47V48V49C16.1328 49 16.4129 48.9236 16.6632 48.7984L16.216 47.904ZM15.832 48V47H9.088V48V49H15.832V48Z" fill="#110B52" fill-opacity="0.13" mask="url(#path-2-outside-1_103_13)"/>
<mask id="path-4-outside-2_103_13" maskUnits="userSpaceOnUse" x="25" y="36" width="26" height="7" fill="black">
<rect fill="white" x="25" y="36" width="26" height="7"/>
<path d="M27.295 42C27.2413 42 27.1947 41.9802 27.155 41.9405L26.455 41.2405C26.4153 41.2032 26.3955 41.1565 26.3955 41.1005V39.0495C26.3955 38.9935 26.4153 38.9468 26.455 38.9095L27.155 38.2095C27.1947 38.1698 27.2413 38.15 27.295 38.15H28.3555C28.4115 38.15 28.4582 38.1698 28.4955 38.2095L29.1955 38.9095C29.2352 38.9468 29.255 38.9935 29.255 39.0495V41.1005C29.255 41.1565 29.2352 41.2032 29.1955 41.2405L28.4955 41.9405C28.4582 41.9802 28.4115 42 28.3555 42H27.295ZM27.7045 41.1845H27.9495C28.0242 41.1845 28.0755 41.1693 28.1035 41.139C28.1315 41.1087 28.1455 41.055 28.1455 40.978V39.172C28.1455 39.095 28.1315 39.0413 28.1035 39.011C28.0755 38.9807 28.0242 38.9655 27.9495 38.9655H27.7045C27.6275 38.9655 27.575 38.9807 27.547 39.011C27.519 39.0413 27.505 39.095 27.505 39.172V40.978C27.505 41.055 27.519 41.1087 27.547 41.139C27.575 41.1693 27.6275 41.1845 27.7045 41.1845ZM30.1579 42C30.0996 42 30.0704 41.9708 30.0704 41.9125V38.2375C30.0704 38.1792 30.0996 38.15 30.1579 38.15H31.7504C31.8041 38.15 31.8507 38.1698 31.8904 38.2095L32.3209 38.64H32.4504L32.8809 38.2095C32.9206 38.1698 32.9672 38.15 33.0209 38.15H33.7804C33.8341 38.15 33.8807 38.1698 33.9204 38.2095L34.6204 38.9095C34.6601 38.9468 34.6799 38.9935 34.6799 39.0495V41.9125C34.6799 41.9708 34.6507 42 34.5924 42H33.6579C33.5996 42 33.5704 41.9708 33.5704 41.9125V39.172C33.5704 39.074 33.5214 39.025 33.4234 39.025H32.9299V41.9125C32.9299 41.9708 32.9007 42 32.8424 42H31.9079C31.8496 42 31.8204 41.9708 31.8204 41.9125V39.172C31.8204 39.074 31.7714 39.025 31.6734 39.025H31.1799V41.9125C31.1799 41.9708 31.1507 42 31.0924 42H30.1579ZM35.5856 42C35.5273 42 35.4981 41.9708 35.4981 41.9125V38.2375C35.4981 38.1792 35.5273 38.15 35.5856 38.15H37.1781C37.2318 38.15 37.2785 38.1698 37.3181 38.2095L37.7486 38.64H37.8781L38.3086 38.2095C38.3483 38.1698 38.395 38.15 38.4486 38.15H39.2081C39.2618 38.15 39.3085 38.1698 39.3481 38.2095L40.0481 38.9095C40.0878 38.9468 40.1076 38.9935 40.1076 39.0495V41.9125C40.1076 41.9708 40.0785 42 40.0201 42H39.0856C39.0273 42 38.9981 41.9708 38.9981 41.9125V39.172C38.9981 39.074 38.9491 39.025 38.8511 39.025H38.3576V41.9125C38.3576 41.9708 38.3285 42 38.2701 42H37.3356C37.2773 42 37.2481 41.9708 37.2481 41.9125V39.172C37.2481 39.074 37.1991 39.025 37.1011 39.025H36.6076V41.9125C36.6076 41.9708 36.5785 42 36.5201 42H35.5856ZM41.8009 42C41.7472 42 41.7005 41.9802 41.6609 41.9405L40.9609 41.2405C40.9212 41.2032 40.9014 41.1565 40.9014 41.1005V39.0495C40.9014 38.9935 40.9212 38.9468 40.9609 38.9095L41.6609 38.2095C41.7005 38.1698 41.7472 38.15 41.8009 38.15H43.6734C43.7317 38.15 43.7609 38.1792 43.7609 38.2375V41.9125C43.7609 41.9708 43.7317 42 43.6734 42H42.9454C42.915 42 42.8917 41.9942 42.8754 41.9825C42.8614 41.9708 42.845 41.9568 42.8264 41.9405L42.6514 41.7655L42.4764 41.9405C42.439 41.9802 42.3924 42 42.3364 42H41.8009ZM42.2104 41.1845H42.4554C42.53 41.1845 42.5814 41.1693 42.6094 41.139C42.6374 41.1087 42.6514 41.055 42.6514 40.978V38.9655H42.2104C42.1334 38.9655 42.0809 38.9807 42.0529 39.011C42.0249 39.0413 42.0109 39.095 42.0109 39.172V40.978C42.0109 41.055 42.0249 41.1087 42.0529 41.139C42.0809 41.1693 42.1334 41.1845 42.2104 41.1845ZM44.6638 42C44.6054 42 44.5763 41.9708 44.5763 41.9125V38.2375C44.5763 38.1792 44.6054 38.15 44.6638 38.15H45.1958C45.2401 38.15 45.2786 38.1698 45.3113 38.2095L45.6543 38.605L46.0358 38.192C46.0614 38.164 46.0941 38.15 46.1337 38.15H46.5118C46.5701 38.15 46.5993 38.1792 46.5993 38.2375V38.99C46.5993 39.0273 46.5969 39.053 46.5923 39.067C46.5876 39.0787 46.5748 39.0915 46.5538 39.1055L45.6858 39.746V41.9125C45.6858 41.9708 45.6566 42 45.5983 42H44.6638ZM48.9592 42C48.9288 42 48.9043 41.9953 48.8857 41.986C48.8693 41.9767 48.8588 41.9638 48.8542 41.9475L48.4517 40.362H48.1262V39.522H48.4517L48.8542 38.2095C48.8588 38.1908 48.8693 38.178 48.8857 38.171C48.9043 38.1617 48.9288 38.157 48.9592 38.157H49.8447C49.903 38.157 49.9322 38.1862 49.9322 38.2445V38.6155C49.9322 38.6482 49.9298 38.6738 49.9252 38.6925C49.9205 38.7112 49.9135 38.731 49.9042 38.752L49.3862 39.9455V40.0645L49.9322 41.405C49.9438 41.4307 49.952 41.454 49.9567 41.475C49.9613 41.4937 49.9637 41.5147 49.9637 41.538V41.9125C49.9637 41.9708 49.9345 42 49.8762 42H48.9592ZM47.1042 42C47.0458 42 47.0167 41.9708 47.0167 41.9125V37.422C47.0167 37.3637 47.0458 37.3345 47.1042 37.3345H48.0387C48.097 37.3345 48.1262 37.3637 48.1262 37.422V41.9125C48.1262 41.9708 48.097 42 48.0387 42H47.1042Z"/>
</mask>
<path d="M27.295 42C27.2413 42 27.1947 41.9802 27.155 41.9405L26.455 41.2405C26.4153 41.2032 26.3955 41.1565 26.3955 41.1005V39.0495C26.3955 38.9935 26.4153 38.9468 26.455 38.9095L27.155 38.2095C27.1947 38.1698 27.2413 38.15 27.295 38.15H28.3555C28.4115 38.15 28.4582 38.1698 28.4955 38.2095L29.1955 38.9095C29.2352 38.9468 29.255 38.9935 29.255 39.0495V41.1005C29.255 41.1565 29.2352 41.2032 29.1955 41.2405L28.4955 41.9405C28.4582 41.9802 28.4115 42 28.3555 42H27.295ZM27.7045 41.1845H27.9495C28.0242 41.1845 28.0755 41.1693 28.1035 41.139C28.1315 41.1087 28.1455 41.055 28.1455 40.978V39.172C28.1455 39.095 28.1315 39.0413 28.1035 39.011C28.0755 38.9807 28.0242 38.9655 27.9495 38.9655H27.7045C27.6275 38.9655 27.575 38.9807 27.547 39.011C27.519 39.0413 27.505 39.095 27.505 39.172V40.978C27.505 41.055 27.519 41.1087 27.547 41.139C27.575 41.1693 27.6275 41.1845 27.7045 41.1845ZM30.1579 42C30.0996 42 30.0704 41.9708 30.0704 41.9125V38.2375C30.0704 38.1792 30.0996 38.15 30.1579 38.15H31.7504C31.8041 38.15 31.8507 38.1698 31.8904 38.2095L32.3209 38.64H32.4504L32.8809 38.2095C32.9206 38.1698 32.9672 38.15 33.0209 38.15H33.7804C33.8341 38.15 33.8807 38.1698 33.9204 38.2095L34.6204 38.9095C34.6601 38.9468 34.6799 38.9935 34.6799 39.0495V41.9125C34.6799 41.9708 34.6507 42 34.5924 42H33.6579C33.5996 42 33.5704 41.9708 33.5704 41.9125V39.172C33.5704 39.074 33.5214 39.025 33.4234 39.025H32.9299V41.9125C32.9299 41.9708 32.9007 42 32.8424 42H31.9079C31.8496 42 31.8204 41.9708 31.8204 41.9125V39.172C31.8204 39.074 31.7714 39.025 31.6734 39.025H31.1799V41.9125C31.1799 41.9708 31.1507 42 31.0924 42H30.1579ZM35.5856 42C35.5273 42 35.4981 41.9708 35.4981 41.9125V38.2375C35.4981 38.1792 35.5273 38.15 35.5856 38.15H37.1781C37.2318 38.15 37.2785 38.1698 37.3181 38.2095L37.7486 38.64H37.8781L38.3086 38.2095C38.3483 38.1698 38.395 38.15 38.4486 38.15H39.2081C39.2618 38.15 39.3085 38.1698 39.3481 38.2095L40.0481 38.9095C40.0878 38.9468 40.1076 38.9935 40.1076 39.0495V41.9125C40.1076 41.9708 40.0785 42 40.0201 42H39.0856C39.0273 42 38.9981 41.9708 38.9981 41.9125V39.172C38.9981 39.074 38.9491 39.025 38.8511 39.025H38.3576V41.9125C38.3576 41.9708 38.3285 42 38.2701 42H37.3356C37.2773 42 37.2481 41.9708 37.2481 41.9125V39.172C37.2481 39.074 37.1991 39.025 37.1011 39.025H36.6076V41.9125C36.6076 41.9708 36.5785 42 36.5201 42H35.5856ZM41.8009 42C41.7472 42 41.7005 41.9802 41.6609 41.9405L40.9609 41.2405C40.9212 41.2032 40.9014 41.1565 40.9014 41.1005V39.0495C40.9014 38.9935 40.9212 38.9468 40.9609 38.9095L41.6609 38.2095C41.7005 38.1698 41.7472 38.15 41.8009 38.15H43.6734C43.7317 38.15 43.7609 38.1792 43.7609 38.2375V41.9125C43.7609 41.9708 43.7317 42 43.6734 42H42.9454C42.915 42 42.8917 41.9942 42.8754 41.9825C42.8614 41.9708 42.845 41.9568 42.8264 41.9405L42.6514 41.7655L42.4764 41.9405C42.439 41.9802 42.3924 42 42.3364 42H41.8009ZM42.2104 41.1845H42.4554C42.53 41.1845 42.5814 41.1693 42.6094 41.139C42.6374 41.1087 42.6514 41.055 42.6514 40.978V38.9655H42.2104C42.1334 38.9655 42.0809 38.9807 42.0529 39.011C42.0249 39.0413 42.0109 39.095 42.0109 39.172V40.978C42.0109 41.055 42.0249 41.1087 42.0529 41.139C42.0809 41.1693 42.1334 41.1845 42.2104 41.1845ZM44.6638 42C44.6054 42 44.5763 41.9708 44.5763 41.9125V38.2375C44.5763 38.1792 44.6054 38.15 44.6638 38.15H45.1958C45.2401 38.15 45.2786 38.1698 45.3113 38.2095L45.6543 38.605L46.0358 38.192C46.0614 38.164 46.0941 38.15 46.1337 38.15H46.5118C46.5701 38.15 46.5993 38.1792 46.5993 38.2375V38.99C46.5993 39.0273 46.5969 39.053 46.5923 39.067C46.5876 39.0787 46.5748 39.0915 46.5538 39.1055L45.6858 39.746V41.9125C45.6858 41.9708 45.6566 42 45.5983 42H44.6638ZM48.9592 42C48.9288 42 48.9043 41.9953 48.8857 41.986C48.8693 41.9767 48.8588 41.9638 48.8542 41.9475L48.4517 40.362H48.1262V39.522H48.4517L48.8542 38.2095C48.8588 38.1908 48.8693 38.178 48.8857 38.171C48.9043 38.1617 48.9288 38.157 48.9592 38.157H49.8447C49.903 38.157 49.9322 38.1862 49.9322 38.2445V38.6155C49.9322 38.6482 49.9298 38.6738 49.9252 38.6925C49.9205 38.7112 49.9135 38.731 49.9042 38.752L49.3862 39.9455V40.0645L49.9322 41.405C49.9438 41.4307 49.952 41.454 49.9567 41.475C49.9613 41.4937 49.9637 41.5147 49.9637 41.538V41.9125C49.9637 41.9708 49.9345 42 49.8762 42H48.9592ZM47.1042 42C47.0458 42 47.0167 41.9708 47.0167 41.9125V37.422C47.0167 37.3637 47.0458 37.3345 47.1042 37.3345H48.0387C48.097 37.3345 48.1262 37.3637 48.1262 37.422V41.9125C48.1262 41.9708 48.097 42 48.0387 42H47.1042Z" fill="#F5F5F5"/>
<path d="M27.155 41.9405L27.8621 41.2334L27.8621 41.2334L27.155 41.9405ZM26.455 41.2405L27.1621 40.5334L27.1514 40.5227L27.1404 40.5123L26.455 41.2405ZM26.455 38.9095L27.1404 39.6377L27.1514 39.6273L27.1621 39.6166L26.455 38.9095ZM27.155 38.2095L26.4479 37.5024L26.4479 37.5024L27.155 38.2095ZM28.4955 38.2095L27.7673 38.8949L27.7777 38.9059L27.7884 38.9166L28.4955 38.2095ZM29.1955 38.9095L28.4884 39.6166L28.4991 39.6273L28.5101 39.6377L29.1955 38.9095ZM29.1955 41.2405L28.5101 40.5123L28.4991 40.5227L28.4884 40.5334L29.1955 41.2405ZM28.4955 41.9405L27.7884 41.2334L27.7777 41.2441L27.7673 41.2551L28.4955 41.9405ZM28.1035 41.139L27.3687 40.4607L27.3687 40.4607L28.1035 41.139ZM28.1035 39.011L27.3687 39.6893L27.3687 39.6893L28.1035 39.011ZM27.547 39.011L28.2818 39.6893L28.2818 39.6893L27.547 39.011ZM27.547 41.139L28.2818 40.4607L28.2818 40.4607L27.547 41.139ZM27.295 42V41C27.3946 41 27.5034 41.0191 27.6109 41.0648C27.7175 41.1101 27.8009 41.1722 27.8621 41.2334L27.155 41.9405L26.4479 42.6476C26.6656 42.8653 26.963 43 27.295 43V42ZM27.155 41.9405L27.8621 41.2334L27.1621 40.5334L26.455 41.2405L25.7479 41.9476L26.4479 42.6476L27.155 41.9405ZM26.455 41.2405L27.1404 40.5123C27.2137 40.5814 27.2825 40.673 27.3307 40.7864C27.3786 40.8991 27.3955 41.0082 27.3955 41.1005H26.3955H25.3955C25.3955 41.4235 25.5229 41.7365 25.7696 41.9687L26.455 41.2405ZM26.3955 41.1005H27.3955V39.0495H26.3955H25.3955V41.1005H26.3955ZM26.3955 39.0495H27.3955C27.3955 39.1418 27.3786 39.2509 27.3307 39.3636C27.2825 39.477 27.2137 39.5686 27.1404 39.6377L26.455 38.9095L25.7696 38.1813C25.5229 38.4135 25.3955 38.7265 25.3955 39.0495H26.3955ZM26.455 38.9095L27.1621 39.6166L27.8621 38.9166L27.155 38.2095L26.4479 37.5024L25.7479 38.2024L26.455 38.9095ZM27.155 38.2095L27.8621 38.9166C27.8009 38.9778 27.7175 39.0399 27.6109 39.0852C27.5034 39.1309 27.3946 39.15 27.295 39.15V38.15V37.15C26.963 37.15 26.6656 37.2847 26.4479 37.5024L27.155 38.2095ZM27.295 38.15V39.15H28.3555V38.15V37.15H27.295V38.15ZM28.3555 38.15V39.15C28.2632 39.15 28.1541 39.1331 28.0414 39.0852C27.928 39.037 27.8364 38.9683 27.7673 38.8949L28.4955 38.2095L29.2237 37.5241C28.9915 37.2774 28.6785 37.15 28.3555 37.15V38.15ZM28.4955 38.2095L27.7884 38.9166L28.4884 39.6166L29.1955 38.9095L29.9026 38.2024L29.2026 37.5024L28.4955 38.2095ZM29.1955 38.9095L28.5101 39.6377C28.4368 39.5686 28.368 39.477 28.3198 39.3636C28.2719 39.2509 28.255 39.1418 28.255 39.0495H29.255H30.255C30.255 38.7265 30.1276 38.4135 29.8809 38.1813L29.1955 38.9095ZM29.255 39.0495H28.255V41.1005H29.255H30.255V39.0495H29.255ZM29.255 41.1005H28.255C28.255 41.0082 28.2719 40.8991 28.3198 40.7864C28.368 40.673 28.4368 40.5814 28.5101 40.5123L29.1955 41.2405L29.8809 41.9687C30.1276 41.7365 30.255 41.4235 30.255 41.1005H29.255ZM29.1955 41.2405L28.4884 40.5334L27.7884 41.2334L28.4955 41.9405L29.2026 42.6476L29.9026 41.9476L29.1955 41.2405ZM28.4955 41.9405L27.7673 41.2551C27.8364 41.1817 27.928 41.113 28.0414 41.0648C28.1541 41.0169 28.2632 41 28.3555 41V42V43C28.6785 43 28.9915 42.8726 29.2237 42.6259L28.4955 41.9405ZM28.3555 42V41H27.295V42V43H28.3555V42ZM27.7045 41.1845V42.1845H27.9495V41.1845V40.1845H27.7045V41.1845ZM27.9495 41.1845V42.1845C28.0951 42.1845 28.5152 42.1673 28.8383 41.8173L28.1035 41.139L27.3687 40.4607C27.5083 40.3094 27.6635 40.2428 27.7607 40.2141C27.8552 40.1862 27.9257 40.1845 27.9495 40.1845V41.1845ZM28.1035 41.139L28.8383 41.8173C29.1335 41.4974 29.1455 41.1133 29.1455 40.978H28.1455H27.1455C27.1455 40.9616 27.1464 40.9041 27.1674 40.8236C27.1882 40.7438 27.2396 40.6005 27.3687 40.4607L28.1035 41.139ZM28.1455 40.978H29.1455V39.172H28.1455H27.1455V40.978H28.1455ZM28.1455 39.172H29.1455C29.1455 39.0367 29.1335 38.6526 28.8383 38.3327L28.1035 39.011L27.3687 39.6893C27.2396 39.5495 27.1882 39.4062 27.1674 39.3264C27.1464 39.2459 27.1455 39.1884 27.1455 39.172H28.1455ZM28.1035 39.011L28.8383 38.3327C28.5152 37.9827 28.0951 37.9655 27.9495 37.9655V38.9655V39.9655C27.9257 39.9655 27.8552 39.9638 27.7607 39.9359C27.6635 39.9072 27.5083 39.8405 27.3687 39.6893L28.1035 39.011ZM27.9495 38.9655V37.9655H27.7045V38.9655V39.9655H27.9495V38.9655ZM27.7045 38.9655V37.9655C27.5679 37.9655 27.1395 37.9782 26.8122 38.3327L27.547 39.011L28.2818 39.6893C28.1381 39.845 27.9787 39.9105 27.8849 39.9376C27.7925 39.9643 27.7248 39.9655 27.7045 39.9655V38.9655ZM27.547 39.011L26.8122 38.3327C26.517 38.6526 26.505 39.0367 26.505 39.172H27.505H28.505C28.505 39.1884 28.5041 39.2459 28.4831 39.3264C28.4623 39.4062 28.4109 39.5495 28.2818 39.6893L27.547 39.011ZM27.505 39.172H26.505V40.978H27.505H28.505V39.172H27.505ZM27.505 40.978H26.505C26.505 41.1133 26.517 41.4974 26.8122 41.8173L27.547 41.139L28.2818 40.4607C28.4109 40.6005 28.4623 40.7438 28.4831 40.8236C28.5041 40.9041 28.505 40.9616 28.505 40.978H27.505ZM27.547 41.139L26.8122 41.8173C27.1395 42.1718 27.5679 42.1845 27.7045 42.1845V41.1845V40.1845C27.7248 40.1845 27.7925 40.1857 27.8849 40.2124C27.9787 40.2395 28.1381 40.305 28.2818 40.4607L27.547 41.139ZM31.8904 38.2095L32.5975 37.5024L32.5975 37.5024L31.8904 38.2095ZM32.3209 38.64L31.6138 39.3471L31.9067 39.64H32.3209V38.64ZM32.4504 38.64V39.64H32.8646L33.1575 39.3471L32.4504 38.64ZM32.8809 38.2095L32.1738 37.5024L32.1738 37.5024L32.8809 38.2095ZM33.9204 38.2095L33.2133 38.9166L33.9204 38.2095ZM34.6204 38.9095L33.9133 39.6166L33.924 39.6273L33.935 39.6377L34.6204 38.9095ZM32.9299 39.025V38.025H31.9299V39.025H32.9299ZM31.1799 39.025V38.025H30.1799V39.025H31.1799ZM30.1579 42V41C30.2829 41 30.5603 41.0319 30.7994 41.271C31.0385 41.5101 31.0704 41.7875 31.0704 41.9125H30.0704H29.0704C29.0704 42.0958 29.1169 42.417 29.3852 42.6852C29.6534 42.9535 29.9746 43 30.1579 43V42ZM30.0704 41.9125H31.0704V38.2375H30.0704H29.0704V41.9125H30.0704ZM30.0704 38.2375H31.0704C31.0704 38.3625 31.0385 38.6399 30.7994 38.879C30.5603 39.1181 30.2829 39.15 30.1579 39.15V38.15V37.15C29.9746 37.15 29.6534 37.1965 29.3852 37.4648C29.1169 37.733 29.0704 38.0542 29.0704 38.2375H30.0704ZM30.1579 38.15V39.15H31.7504V38.15V37.15H30.1579V38.15ZM31.7504 38.15V39.15C31.6508 39.15 31.542 39.1309 31.4345 39.0852C31.3279 39.0399 31.2445 38.9778 31.1833 38.9166L31.8904 38.2095L32.5975 37.5024C32.3798 37.2847 32.0824 37.15 31.7504 37.15V38.15ZM31.8904 38.2095L31.1833 38.9166L31.6138 39.3471L32.3209 38.64L33.028 37.9329L32.5975 37.5024L31.8904 38.2095ZM32.3209 38.64V39.64H32.4504V38.64V37.64H32.3209V38.64ZM32.4504 38.64L33.1575 39.3471L33.588 38.9166L32.8809 38.2095L32.1738 37.5024L31.7433 37.9329L32.4504 38.64ZM32.8809 38.2095L33.588 38.9166C33.5268 38.9778 33.4434 39.0399 33.3368 39.0852C33.2293 39.1309 33.1205 39.15 33.0209 39.15V38.15V37.15C32.6889 37.15 32.3915 37.2847 32.1738 37.5024L32.8809 38.2095ZM33.0209 38.15V39.15H33.7804V38.15V37.15H33.0209V38.15ZM33.7804 38.15V39.15C33.6808 39.15 33.572 39.1309 33.4645 39.0852C33.3579 39.0399 33.2745 38.9778 33.2133 38.9166L33.9204 38.2095L34.6275 37.5024C34.4098 37.2847 34.1124 37.15 33.7804 37.15V38.15ZM33.9204 38.2095L33.2133 38.9166L33.9133 39.6166L34.6204 38.9095L35.3275 38.2024L34.6275 37.5024L33.9204 38.2095ZM34.6204 38.9095L33.935 39.6377C33.8616 39.5686 33.7928 39.477 33.7447 39.3636C33.6968 39.2509 33.6799 39.1418 33.6799 39.0495H34.6799H35.6799C35.6799 38.7265 35.5525 38.4135 35.3058 38.1813L34.6204 38.9095ZM34.6799 39.0495H33.6799V41.9125H34.6799H35.6799V39.0495H34.6799ZM34.6799 41.9125H33.6799C33.6799 41.7875 33.7118 41.5101 33.9509 41.271C34.19 41.0319 34.4674 41 34.5924 41V42V43C34.7757 43 35.0969 42.9535 35.3651 42.6852C35.6334 42.417 35.6799 42.0958 35.6799 41.9125H34.6799ZM34.5924 42V41H33.6579V42V43H34.5924V42ZM33.6579 42V41C33.7829 41 34.0603 41.0319 34.2994 41.271C34.5385 41.5101 34.5704 41.7875 34.5704 41.9125H33.5704H32.5704C32.5704 42.0958 32.6169 42.417 32.8852 42.6852C33.1534 42.9535 33.4746 43 33.6579 43V42ZM33.5704 41.9125H34.5704V39.172H33.5704H32.5704V41.9125H33.5704ZM33.5704 39.172H34.5704C34.5704 38.9689 34.5189 38.6328 34.2407 38.3546C33.9626 38.0765 33.6265 38.025 33.4234 38.025V39.025V40.025C33.3182 40.025 33.0557 39.998 32.8265 39.7689C32.5974 39.5397 32.5704 39.2771 32.5704 39.172H33.5704ZM33.4234 39.025V38.025H32.9299V39.025V40.025H33.4234V39.025ZM32.9299 39.025H31.9299V41.9125H32.9299H33.9299V39.025H32.9299ZM32.9299 41.9125H31.9299C31.9299 41.7875 31.9618 41.5101 32.2009 41.271C32.44 41.0319 32.7174 41 32.8424 41V42V43C33.0257 43 33.3469 42.9535 33.6151 42.6852C33.8834 42.417 33.9299 42.0958 33.9299 41.9125H32.9299ZM32.8424 42V41H31.9079V42V43H32.8424V42ZM31.9079 42V41C32.0329 41 32.3103 41.0319 32.5494 41.271C32.7885 41.5101 32.8204 41.7875 32.8204 41.9125H31.8204H30.8204C30.8204 42.0958 30.8669 42.417 31.1352 42.6852C31.4034 42.9535 31.7246 43 31.9079 43V42ZM31.8204 41.9125H32.8204V39.172H31.8204H30.8204V41.9125H31.8204ZM31.8204 39.172H32.8204C32.8204 38.9689 32.7689 38.6328 32.4907 38.3546C32.2126 38.0765 31.8765 38.025 31.6734 38.025V39.025V40.025C31.5682 40.025 31.3057 39.998 31.0765 39.7689C30.8474 39.5397 30.8204 39.2771 30.8204 39.172H31.8204ZM31.6734 39.025V38.025H31.1799V39.025V40.025H31.6734V39.025ZM31.1799 39.025H30.1799V41.9125H31.1799H32.1799V39.025H31.1799ZM31.1799 41.9125H30.1799C30.1799 41.7875 30.2118 41.5101 30.4509 41.271C30.69 41.0319 30.9674 41 31.0924 41V42V43C31.2757 43 31.5969 42.9535 31.8651 42.6852C32.1334 42.417 32.1799 42.0958 32.1799 41.9125H31.1799ZM31.0924 42V41H30.1579V42V43H31.0924V42ZM37.3181 38.2095L38.0252 37.5024L38.0252 37.5024L37.3181 38.2095ZM37.7486 38.64L37.0415 39.3471L37.3344 39.64H37.7486V38.64ZM37.8781 38.64V39.64H38.2923L38.5852 39.3471L37.8781 38.64ZM38.3086 38.2095L37.6015 37.5024L37.6015 37.5024L38.3086 38.2095ZM39.3481 38.2095L38.641 38.9166L39.3481 38.2095ZM40.0481 38.9095L39.341 39.6166L39.3517 39.6273L39.3628 39.6377L40.0481 38.9095ZM38.3576 39.025V38.025H37.3576V39.025H38.3576ZM36.6076 39.025V38.025H35.6076V39.025H36.6076ZM35.5856 42V41C35.7106 41 35.988 41.0319 36.2271 41.271C36.4662 41.5101 36.4981 41.7875 36.4981 41.9125H35.4981H34.4981C34.4981 42.0958 34.5446 42.417 34.8129 42.6852C35.0812 42.9535 35.4023 43 35.5856 43V42ZM35.4981 41.9125H36.4981V38.2375H35.4981H34.4981V41.9125H35.4981ZM35.4981 38.2375H36.4981C36.4981 38.3625 36.4662 38.6399 36.2271 38.879C35.988 39.1181 35.7106 39.15 35.5856 39.15V38.15V37.15C35.4023 37.15 35.0812 37.1965 34.8129 37.4648C34.5446 37.733 34.4981 38.0542 34.4981 38.2375H35.4981ZM35.5856 38.15V39.15H37.1781V38.15V37.15H35.5856V38.15ZM37.1781 38.15V39.15C37.0785 39.15 36.9697 39.1309 36.8622 39.0852C36.7556 39.0399 36.6722 38.9778 36.611 38.9166L37.3181 38.2095L38.0252 37.5024C37.8075 37.2847 37.5101 37.15 37.1781 37.15V38.15ZM37.3181 38.2095L36.611 38.9166L37.0415 39.3471L37.7486 38.64L38.4557 37.9329L38.0252 37.5024L37.3181 38.2095ZM37.7486 38.64V39.64H37.8781V38.64V37.64H37.7486V38.64ZM37.8781 38.64L38.5852 39.3471L39.0157 38.9166L38.3086 38.2095L37.6015 37.5024L37.171 37.9329L37.8781 38.64ZM38.3086 38.2095L39.0157 38.9166C38.9545 38.9778 38.8711 39.0399 38.7645 39.0852C38.657 39.1309 38.5482 39.15 38.4486 39.15V38.15V37.15C38.1167 37.15 37.8193 37.2847 37.6015 37.5024L38.3086 38.2095ZM38.4486 38.15V39.15H39.2081V38.15V37.15H38.4486V38.15ZM39.2081 38.15V39.15C39.1085 39.15 38.9997 39.1309 38.8922 39.0852C38.7856 39.0399 38.7022 38.9778 38.641 38.9166L39.3481 38.2095L40.0552 37.5024C39.8375 37.2847 39.5401 37.15 39.2081 37.15V38.15ZM39.3481 38.2095L38.641 38.9166L39.341 39.6166L40.0481 38.9095L40.7552 38.2024L40.0552 37.5024L39.3481 38.2095ZM40.0481 38.9095L39.3628 39.6377C39.2894 39.5686 39.2206 39.477 39.1724 39.3636C39.1245 39.2509 39.1076 39.1418 39.1076 39.0495H40.1076H41.1076C41.1076 38.7265 40.9802 38.4135 40.7335 38.1813L40.0481 38.9095ZM40.1076 39.0495H39.1076V41.9125H40.1076H41.1076V39.0495H40.1076ZM40.1076 41.9125H39.1076C39.1076 41.7875 39.1395 41.5101 39.3786 41.271C39.6177 41.0319 39.8951 41 40.0201 41V42V43C40.2034 43 40.5246 42.9535 40.7929 42.6852C41.0611 42.417 41.1076 42.0958 41.1076 41.9125H40.1076ZM40.0201 42V41H39.0856V42V43H40.0201V42ZM39.0856 42V41C39.2106 41 39.488 41.0319 39.7271 41.271C39.9662 41.5101 39.9981 41.7875 39.9981 41.9125H38.9981H37.9981C37.9981 42.0958 38.0446 42.417 38.3129 42.6852C38.5812 42.9535 38.9023 43 39.0856 43V42ZM38.9981 41.9125H39.9981V39.172H38.9981H37.9981V41.9125H38.9981ZM38.9981 39.172H39.9981C39.9981 38.9689 39.9467 38.6328 39.6685 38.3546C39.3903 38.0765 39.0543 38.025 38.8511 38.025V39.025V40.025C38.746 40.025 38.4834 39.998 38.2543 39.7689C38.0251 39.5397 37.9981 39.2771 37.9981 39.172H38.9981ZM38.8511 39.025V38.025H38.3576V39.025V40.025H38.8511V39.025ZM38.3576 39.025H37.3576V41.9125H38.3576H39.3576V39.025H38.3576ZM38.3576 41.9125H37.3576C37.3576 41.7875 37.3895 41.5101 37.6286 41.271C37.8677 41.0319 38.1451 41 38.2701 41V42V43C38.4534 43 38.7746 42.9535 39.0429 42.6852C39.3111 42.417 39.3576 42.0958 39.3576 41.9125H38.3576ZM38.2701 42V41H37.3356V42V43H38.2701V42ZM37.3356 42V41C37.4606 41 37.738 41.0319 37.9771 41.271C38.2162 41.5101 38.2481 41.7875 38.2481 41.9125H37.2481H36.2481C36.2481 42.0958 36.2946 42.417 36.5629 42.6852C36.8312 42.9535 37.1523 43 37.3356 43V42ZM37.2481 41.9125H38.2481V39.172H37.2481H36.2481V41.9125H37.2481ZM37.2481 39.172H38.2481C38.2481 38.9689 38.1967 38.6328 37.9185 38.3546C37.6403 38.0765 37.3043 38.025 37.1011 38.025V39.025V40.025C36.996 40.025 36.7334 39.998 36.5043 39.7689C36.2751 39.5397 36.2481 39.2771 36.2481 39.172H37.2481ZM37.1011 39.025V38.025H36.6076V39.025V40.025H37.1011V39.025ZM36.6076 39.025H35.6076V41.9125H36.6076H37.6076V39.025H36.6076ZM36.6076 41.9125H35.6076C35.6076 41.7875 35.6395 41.5101 35.8786 41.271C36.1177 41.0319 36.3951 41 36.5201 41V42V43C36.7034 43 37.0246 42.9535 37.2929 42.6852C37.5611 42.417 37.6076 42.0958 37.6076 41.9125H36.6076ZM36.5201 42V41H35.5856V42V43H36.5201V42ZM41.6609 41.9405L42.368 41.2334L42.368 41.2334L41.6609 41.9405ZM40.9609 41.2405L41.668 40.5334L41.6573 40.5227L41.6462 40.5123L40.9609 41.2405ZM40.9609 38.9095L41.6462 39.6377L41.6573 39.6273L41.668 39.6166L40.9609 38.9095ZM41.6609 38.2095L40.9538 37.5024L40.9538 37.5024L41.6609 38.2095ZM42.8754 41.9825L42.2352 42.7507L42.2638 42.7746L42.2941 42.7962L42.8754 41.9825ZM42.8264 41.9405L42.1193 42.6476L42.1428 42.6711L42.1679 42.6931L42.8264 41.9405ZM42.6514 41.7655L43.3585 41.0584L42.6514 40.3513L41.9443 41.0584L42.6514 41.7655ZM42.4764 41.9405L41.7693 41.2334L41.7585 41.2441L41.7482 41.2551L42.4764 41.9405ZM42.6094 41.139L41.8746 40.4607L41.8746 40.4607L42.6094 41.139ZM42.6514 38.9655H43.6514V37.9655H42.6514V38.9655ZM42.0529 39.011L42.7877 39.6893L42.7877 39.6893L42.0529 39.011ZM42.0529 41.139L42.7877 40.4607L42.7877 40.4607L42.0529 41.139ZM41.8009 42V41C41.9005 41 42.0093 41.0191 42.1168 41.0648C42.2234 41.1101 42.3068 41.1722 42.368 41.2334L41.6609 41.9405L40.9538 42.6476C41.1715 42.8653 41.4689 43 41.8009 43V42ZM41.6609 41.9405L42.368 41.2334L41.668 40.5334L40.9609 41.2405L40.2538 41.9476L40.9538 42.6476L41.6609 41.9405ZM40.9609 41.2405L41.6462 40.5123C41.7196 40.5814 41.7884 40.673 41.8366 40.7864C41.8845 40.8991 41.9014 41.0082 41.9014 41.1005H40.9014H39.9014C39.9014 41.4235 40.0288 41.7365 40.2755 41.9687L40.9609 41.2405ZM40.9014 41.1005H41.9014V39.0495H40.9014H39.9014V41.1005H40.9014ZM40.9014 39.0495H41.9014C41.9014 39.1418 41.8845 39.2509 41.8366 39.3636C41.7884 39.477 41.7196 39.5686 41.6462 39.6377L40.9609 38.9095L40.2755 38.1813C40.0288 38.4135 39.9014 38.7265 39.9014 39.0495H40.9014ZM40.9609 38.9095L41.668 39.6166L42.368 38.9166L41.6609 38.2095L40.9538 37.5024L40.2538 38.2024L40.9609 38.9095ZM41.6609 38.2095L42.368 38.9166C42.3068 38.9778 42.2234 39.0399 42.1167 39.0852C42.0092 39.1309 41.9005 39.15 41.8009 39.15V38.15V37.15C41.4689 37.15 41.1715 37.2847 40.9538 37.5024L41.6609 38.2095ZM41.8009 38.15V39.15H43.6734V38.15V37.15H41.8009V38.15ZM43.6734 38.15V39.15C43.5484 39.15 43.271 39.1181 43.0319 38.879C42.7928 38.6399 42.7609 38.3625 42.7609 38.2375H43.7609H44.7609C44.7609 38.0542 44.7144 37.733 44.4461 37.4648C44.1778 37.1965 43.8567 37.15 43.6734 37.15V38.15ZM43.7609 38.2375H42.7609V41.9125H43.7609H44.7609V38.2375H43.7609ZM43.7609 41.9125H42.7609C42.7609 41.7875 42.7928 41.5101 43.0319 41.271C43.271 41.0319 43.5484 41 43.6734 41V42V43C43.8567 43 44.1778 42.9535 44.4461 42.6852C44.7144 42.417 44.7609 42.0958 44.7609 41.9125H43.7609ZM43.6734 42V41H42.9454V42V43H43.6734V42ZM42.9454 42V41C43.023 41 43.2367 41.0117 43.4566 41.1688L42.8754 41.9825L42.2941 42.7962C42.5467 42.9766 42.807 43 42.9454 43V42ZM42.8754 41.9825L43.5155 41.2143C43.5095 41.2092 43.4995 41.2007 43.4849 41.1879L42.8264 41.9405L42.1679 42.6931C42.1906 42.713 42.2133 42.7325 42.2352 42.7507L42.8754 41.9825ZM42.8264 41.9405L43.5335 41.2334L43.3585 41.0584L42.6514 41.7655L41.9443 42.4726L42.1193 42.6476L42.8264 41.9405ZM42.6514 41.7655L41.9443 41.0584L41.7693 41.2334L42.4764 41.9405L43.1835 42.6476L43.3585 42.4726L42.6514 41.7655ZM42.4764 41.9405L41.7482 41.2551C41.8172 41.1818 41.9089 41.113 42.0222 41.0648C42.1349 41.0169 42.244 41 42.3364 41V42V43C42.6593 43 42.9723 42.8726 43.2046 42.6259L42.4764 41.9405ZM42.3364 42V41H41.8009V42V43H42.3364V42ZM42.2104 41.1845V42.1845H42.4554V41.1845V40.1845H42.2104V41.1845ZM42.4554 41.1845V42.1845C42.601 42.1845 43.0211 42.1673 43.3442 41.8173L42.6094 41.139L41.8746 40.4607C42.0142 40.3094 42.1694 40.2428 42.2665 40.2141C42.3611 40.1862 42.4315 40.1845 42.4554 40.1845V41.1845ZM42.6094 41.139L43.3442 41.8173C43.6394 41.4974 43.6514 41.1133 43.6514 40.978H42.6514H41.6514C41.6514 40.9616 41.6522 40.9041 41.6732 40.8236C41.6941 40.7438 41.7455 40.6005 41.8746 40.4607L42.6094 41.139ZM42.6514 40.978H43.6514V38.9655H42.6514H41.6514V40.978H42.6514ZM42.6514 38.9655V37.9655H42.2104V38.9655V39.9655H42.6514V38.9655ZM42.2104 38.9655V37.9655C42.0737 37.9655 41.6453 37.9782 41.3181 38.3327L42.0529 39.011L42.7877 39.6893C42.6439 39.845 42.4846 39.9105 42.3908 39.9376C42.2984 39.9643 42.2307 39.9655 42.2104 39.9655V38.9655ZM42.0529 39.011L41.3181 38.3327C41.0228 38.6526 41.0109 39.0367 41.0109 39.172H42.0109H43.0109C43.0109 39.1884 43.01 39.2459 42.989 39.3264C42.9682 39.4062 42.9167 39.5495 42.7877 39.6893L42.0529 39.011ZM42.0109 39.172H41.0109V40.978H42.0109H43.0109V39.172H42.0109ZM42.0109 40.978H41.0109C41.0109 41.1133 41.0228 41.4974 41.3181 41.8173L42.0529 41.139L42.7877 40.4607C42.9167 40.6005 42.9682 40.7438 42.989 40.8236C43.01 40.9041 43.0109 40.9616 43.0109 40.978H42.0109ZM42.0529 41.139L41.3181 41.8173C41.6453 42.1718 42.0737 42.1845 42.2104 42.1845V41.1845V40.1845C42.2307 40.1845 42.2984 40.1857 42.3908 40.2124C42.4846 40.2395 42.6439 40.305 42.7877 40.4607L42.0529 41.139ZM45.3113 38.2095L44.5393 38.8452L44.5474 38.8551L44.5558 38.8647L45.3113 38.2095ZM45.6543 38.605L44.8988 39.2602L45.6308 40.1042L46.3888 39.2835L45.6543 38.605ZM46.0358 38.192L46.7703 38.8705L46.7729 38.8677L46.0358 38.192ZM46.5923 39.067L47.5207 39.4384L47.5316 39.4111L47.5409 39.3832L46.5923 39.067ZM46.5538 39.1055L45.999 38.2735L45.9792 38.2867L45.96 38.3009L46.5538 39.1055ZM45.6858 39.746L45.092 38.9414L44.6858 39.2411V39.746H45.6858ZM44.6638 42V41C44.7887 41 45.0661 41.0319 45.3052 41.271C45.5443 41.5101 45.5763 41.7875 45.5763 41.9125H44.5763H43.5763C43.5763 42.0958 43.6228 42.417 43.891 42.6852C44.1593 42.9535 44.4804 43 44.6638 43V42ZM44.5763 41.9125H45.5763V38.2375H44.5763H43.5763V41.9125H44.5763ZM44.5763 38.2375H45.5763C45.5763 38.3625 45.5443 38.6399 45.3052 38.879C45.0661 39.1181 44.7887 39.15 44.6638 39.15V38.15V37.15C44.4804 37.15 44.1593 37.1965 43.891 37.4648C43.6228 37.733 43.5763 38.0542 43.5763 38.2375H44.5763ZM44.6638 38.15V39.15H45.1958V38.15V37.15H44.6638V38.15ZM45.1958 38.15V39.15C45.0625 39.15 44.9257 39.1187 44.7999 39.0538C44.678 38.9911 44.5935 38.911 44.5393 38.8452L45.3113 38.2095L46.0832 37.5738C45.8943 37.3445 45.5882 37.15 45.1958 37.15V38.15ZM45.3113 38.2095L44.5558 38.8647L44.8988 39.2602L45.6543 38.605L46.4097 37.9498L46.0667 37.5543L45.3113 38.2095ZM45.6543 38.605L46.3888 39.2835L46.7703 38.8705L46.0358 38.192L45.3012 37.5135L44.9197 37.9265L45.6543 38.605ZM46.0358 38.192L46.7729 38.8677C46.6966 38.951 46.5963 39.027 46.4734 39.0796C46.3516 39.1319 46.2336 39.15 46.1337 39.15V38.15V37.15C45.8278 37.15 45.523 37.2715 45.2986 37.5163L46.0358 38.192ZM46.1337 38.15V39.15H46.5118V38.15V37.15H46.1337V38.15ZM46.5118 38.15V39.15C46.3868 39.15 46.1094 39.1181 45.8703 38.879C45.6312 38.6399 45.5993 38.3625 45.5993 38.2375H46.5993H47.5993C47.5993 38.0542 47.5527 37.733 47.2845 37.4648C47.0162 37.1965 46.6951 37.15 46.5118 37.15V38.15ZM46.5993 38.2375H45.5993V38.99H46.5993H47.5993V38.2375H46.5993ZM46.5993 38.99H45.5993C45.5993 38.9892 45.5993 38.9853 45.5995 38.9788C45.5997 38.9726 45.6003 38.9615 45.6016 38.9467C45.6029 38.9325 45.6054 38.9095 45.6105 38.8805C45.6153 38.8533 45.6248 38.8071 45.6436 38.7508L46.5923 39.067L47.5409 39.3832C47.6031 39.1968 47.5993 39.0195 47.5993 38.99H46.5993ZM46.5923 39.067L45.6638 38.6956C45.7289 38.5329 45.8218 38.4285 45.872 38.3783C45.9262 38.324 45.9743 38.29 45.999 38.2735L46.5538 39.1055L47.1085 39.9375C47.1574 39.9049 47.3962 39.7497 47.5207 39.4384L46.5923 39.067ZM46.5538 39.1055L45.96 38.3009L45.092 38.9414L45.6858 39.746L46.2795 40.5506L47.1475 39.9101L46.5538 39.1055ZM45.6858 39.746H44.6858V41.9125H45.6858H46.6858V39.746H45.6858ZM45.6858 41.9125H44.6858C44.6858 41.7875 44.7177 41.5101 44.9568 41.271C45.1959 41.0319 45.4733 41 45.5983 41V42V43C45.7816 43 46.1027 42.9535 46.371 42.6852C46.6392 42.417 46.6858 42.0958 46.6858 41.9125H45.6858ZM45.5983 42V41H44.6638V42V43H45.5983V42ZM48.8857 41.986L48.3895 42.8542L48.4136 42.868L48.4385 42.8804L48.8857 41.986ZM48.8542 41.9475L47.8849 42.1936L47.8886 42.2079L47.8927 42.2222L48.8542 41.9475ZM48.4517 40.362L49.4209 40.1159L49.2295 39.362H48.4517V40.362ZM48.1262 40.362H47.1262V41.362H48.1262V40.362ZM48.1262 39.522V38.522H47.1262V39.522H48.1262ZM48.4517 39.522V40.522H49.191L49.4077 39.8152L48.4517 39.522ZM48.8542 38.2095L49.8102 38.5027L49.8179 38.4775L49.8243 38.452L48.8542 38.2095ZM48.8857 38.171L49.2796 39.0901L49.3066 39.0786L49.3329 39.0654L48.8857 38.171ZM49.9252 38.6925L48.955 38.45L48.955 38.45L49.9252 38.6925ZM49.9042 38.752L48.9903 38.3458L48.9869 38.3539L49.9042 38.752ZM49.3862 39.9455L48.4689 39.5474L48.3862 39.7378V39.9455H49.3862ZM49.3862 40.0645H48.3862V40.2603L48.4601 40.4417L49.3862 40.0645ZM49.9322 41.405L49.0061 41.7822L49.0136 41.8007L49.0218 41.8188L49.9322 41.405ZM49.9567 41.475L48.9805 41.6919L48.9833 41.7048L48.9865 41.7175L49.9567 41.475ZM48.9592 42V41C49.0189 41 49.1642 41.0072 49.3329 41.0916L48.8857 41.986L48.4385 42.8804C48.6445 42.9834 48.8388 43 48.9592 43V42ZM48.8857 41.986L49.3818 41.1178C49.4657 41.1657 49.5576 41.236 49.6395 41.3361C49.7227 41.4378 49.7815 41.5532 49.8157 41.6728L48.8542 41.9475L47.8927 42.2222C47.977 42.5175 48.1732 42.7306 48.3895 42.8542L48.8857 41.986ZM48.8542 41.9475L49.8234 41.7014L49.4209 40.1159L48.4517 40.362L47.4824 40.6081L47.8849 42.1936L48.8542 41.9475ZM48.4517 40.362V39.362H48.1262V40.362V41.362H48.4517V40.362ZM48.1262 40.362H49.1262V39.522H48.1262H47.1262V40.362H48.1262ZM48.1262 39.522V40.522H48.4517V39.522V38.522H48.1262V39.522ZM48.4517 39.522L49.4077 39.8152L49.8102 38.5027L48.8542 38.2095L47.8981 37.9163L47.4956 39.2288L48.4517 39.522ZM48.8542 38.2095L49.8243 38.452C49.7966 38.5629 49.7415 38.6944 49.6395 38.8191C49.5357 38.946 49.4084 39.0349 49.2796 39.0901L48.8857 38.171L48.4918 37.2519C48.1617 37.3933 47.9572 37.6741 47.884 37.967L48.8542 38.2095ZM48.8857 38.171L49.3329 39.0654C49.1642 39.1498 49.0189 39.157 48.9592 39.157V38.157V37.157C48.8388 37.157 48.6445 37.1736 48.4385 37.2766L48.8857 38.171ZM48.9592 38.157V39.157H49.8447V38.157V37.157H48.9592V38.157ZM49.8447 38.157V39.157C49.7197 39.157 49.4423 39.1251 49.2032 38.886C48.9641 38.6469 48.9322 38.3695 48.9322 38.2445H49.9322H50.9322C50.9322 38.0612 50.8857 37.74 50.6174 37.4718C50.3491 37.2035 50.028 37.157 49.8447 37.157V38.157ZM49.9322 38.2445H48.9322V38.6155H49.9322H50.9322V38.2445H49.9322ZM49.9322 38.6155H48.9322C48.9322 38.6092 48.9324 38.5927 48.9345 38.5687C48.9366 38.5463 48.9415 38.5041 48.955 38.45L49.9252 38.6925L50.8953 38.935C50.9288 38.8009 50.9322 38.6816 50.9322 38.6155H49.9322ZM49.9252 38.6925L48.955 38.45C48.9668 38.403 48.9806 38.3678 48.9904 38.3459L49.9042 38.752L50.818 39.1581C50.8464 39.0942 50.8743 39.0193 50.8953 38.935L49.9252 38.6925ZM49.9042 38.752L48.9869 38.3539L48.4689 39.5474L49.3862 39.9455L50.3035 40.3436L50.8215 39.1501L49.9042 38.752ZM49.3862 39.9455H48.3862V40.0645H49.3862H50.3862V39.9455H49.3862ZM49.3862 40.0645L48.4601 40.4417L49.0061 41.7822L49.9322 41.405L50.8583 41.0278L50.3123 39.6873L49.3862 40.0645ZM49.9322 41.405L49.0218 41.8188C49.0131 41.7996 48.9947 41.7558 48.9805 41.6919L49.9567 41.475L50.9329 41.2581C50.9093 41.1522 50.8746 41.0618 50.8425 40.9912L49.9322 41.405ZM49.9567 41.475L48.9865 41.7175C48.9677 41.6422 48.9637 41.5798 48.9637 41.538H49.9637H50.9637C50.9637 41.4496 50.955 41.3451 50.9268 41.2325L49.9567 41.475ZM49.9637 41.538H48.9637V41.9125H49.9637H50.9637V41.538H49.9637ZM49.9637 41.9125H48.9637C48.9637 41.7875 48.9956 41.5101 49.2347 41.271C49.4738 41.0319 49.7512 41 49.8762 41V42V43C50.0595 43 50.3806 42.9535 50.6489 42.6852C50.9172 42.417 50.9637 42.0958 50.9637 41.9125H49.9637ZM49.8762 42V41H48.9592V42V43H49.8762V42ZM47.1042 42V41C47.2292 41 47.5066 41.0319 47.7457 41.271C47.9848 41.5101 48.0167 41.7875 48.0167 41.9125H47.0167H46.0167C46.0167 42.0958 46.0632 42.417 46.3314 42.6852C46.5997 42.9535 46.9209 43 47.1042 43V42ZM47.0167 41.9125H48.0167V37.422H47.0167H46.0167V41.9125H47.0167ZM47.0167 37.422H48.0167C48.0167 37.547 47.9848 37.8244 47.7457 38.0635C47.5066 38.3026 47.2292 38.3345 47.1042 38.3345V37.3345V36.3345C46.9209 36.3345 46.5997 36.381 46.3314 36.6493C46.0632 36.9175 46.0167 37.2387 46.0167 37.422H47.0167ZM47.1042 37.3345V38.3345H48.0387V37.3345V36.3345H47.1042V37.3345ZM48.0387 37.3345V38.3345C47.9137 38.3345 47.6363 38.3026 47.3972 38.0635C47.1581 37.8244 47.1262 37.547 47.1262 37.422H48.1262H49.1262C49.1262 37.2387 49.0797 36.9175 48.8114 36.6493C48.5431 36.381 48.222 36.3345 48.0387 36.3345V37.3345ZM48.1262 37.422H47.1262V41.9125H48.1262H49.1262V37.422H48.1262ZM48.1262 41.9125H47.1262C47.1262 41.7875 47.1581 41.5101 47.3972 41.271C47.6363 41.0319 47.9137 41 48.0387 41V42V43C48.222 43 48.5431 42.9535 48.8114 42.6852C49.0797 42.417 49.1262 42.0958 49.1262 41.9125H48.1262ZM48.0387 42V41H47.1042V42V43H48.0387V42Z" fill="#585394" fill-opacity="0.26" mask="url(#path-4-outside-2_103_13)"/>
<defs>
<linearGradient id="paint0_linear_103_13" x1="30" y1="1" x2="30" y2="61" gradientUnits="userSpaceOnUse">
<stop stop-color="#F80753"/>
<stop offset="1" stop-color="#920431"/>
</linearGradient>
</defs>
</svg>
